<?xml version="1.0" encoding="UTF-8" standalone="no"?>
<svg
   xmlns:dc="http://purl.org/dc/elements/1.1/"
   xmlns:cc="http://creativecommons.org/ns#"
   xmlns:rdf="http://www.w3.org/1999/02/22-rdf-syntax-ns#"
   xmlns:svg="http://www.w3.org/2000/svg"
   xmlns="http://www.w3.org/2000/svg"
   xmlns:sodipodi="http://sodipodi.sourceforge.net/DTD/sodipodi-0.dtd"
   xmlns:inkscape="http://www.inkscape.org/namespaces/inkscape"
   version="1.1"
   x="0px"
   y="0px"
   viewBox="0 0 91.920357 111.82754"
   enable-background="new 0 0 100 100"
   xml:space="preserve"
   id="svg3793"
   sodipodi:docname="zahrani.svg"
   width="91.920357"
   height="111.82754"
   inkscape:version="0.92.2 (30a58d1, 2017-08-07)"><metadata
     id="metadata3799"><rdf:RDF><cc:Work
         rdf:about=""><dc:format>image/svg+xml</dc:format><dc:type
           rdf:resource="http://purl.org/dc/dcmitype/StillImage" /></cc:Work></rdf:RDF></metadata><defs
     id="defs3797" /><sodipodi:namedview
     pagecolor="#ffffff"
     bordercolor="#666666"
     borderopacity="1"
     objecttolerance="10"
     gridtolerance="10"
     guidetolerance="10"
     inkscape:pageopacity="0"
     inkscape:pageshadow="2"
     inkscape:window-width="1366"
     inkscape:window-height="744"
     id="namedview3795"
     showgrid="false"
     inkscape:snap-page="false"
     inkscape:zoom="4.68"
     inkscape:cx="48.693359"
     inkscape:cy="56.101542"
     inkscape:window-x="0"
     inkscape:window-y="24"
     inkscape:window-maximized="1"
     inkscape:current-layer="svg3793" /><g
     id="g3787"
     transform="translate(-1.3066406,-6.774)"><path
       d="m 38.158,71.55 c -1.851,3.999 -1.661,8.477 -0.267,12.332 3.523,-2.096 6.507,-5.44 7.61,-9.706 0.75,-2.92 0.334,-6.157 -0.935,-8.968 -2.765,1.369 -5.138,3.609 -6.408,6.342 z"
       id="path3769"
       inkscape:connector-curvature="0" /><path
       d="m 26.388,56.865 c -4.135,1.518 -7.169,4.82 -8.907,8.531 3.974,1.007 8.448,0.755 12.245,-1.482 2.595,-1.535 4.59,-4.118 5.678,-7.003 -2.923,-0.987 -6.185,-1.081 -9.016,-0.046 z"
       id="path3771"
       inkscape:connector-curvature="0" /><path
       d="m 34.791,44.565 c -1.368,-2.763 -3.608,-5.138 -6.341,-6.407 -3.998,-1.851 -8.478,-1.661 -12.332,-0.267 2.097,3.522 5.442,6.507 9.707,7.609 2.92,0.751 6.157,0.336 8.966,-0.935 z"
       id="path3773"
       inkscape:connector-curvature="0" /><path
       d="m 43.089,35.404 c 0.986,-2.922 1.081,-6.186 0.047,-9.015 -1.519,-4.136 -4.821,-7.17 -8.531,-8.908 -1.008,3.973 -0.753,8.45 1.482,12.244 1.534,2.597 4.118,4.589 7.002,5.679 z"
       id="path3775"
       inkscape:connector-curvature="0" /><path
       d="m 61.842,28.451 c 1.85,-3.998 1.661,-8.478 0.267,-12.333 -3.522,2.097 -6.508,5.442 -7.611,9.708 -0.749,2.919 -0.332,6.156 0.937,8.965 2.762,-1.368 5.137,-3.608 6.407,-6.34 z"
       id="path3777"
       inkscape:connector-curvature="0" /><path
       d="m 70.275,36.088 c -2.594,1.533 -4.589,4.118 -5.678,7.002 2.922,0.985 6.184,1.081 9.015,0.047 4.137,-1.52 7.169,-4.82 8.909,-8.531 -3.975,-1.009 -8.45,-0.756 -12.246,1.482 z"
       id="path3779"
       inkscape:connector-curvature="0" /><path
       d="m 74.173,54.5 c -2.919,-0.751 -6.157,-0.334 -8.966,0.936 1.369,2.763 3.609,5.137 6.343,6.406 3.997,1.853 8.477,1.662 12.331,0.267 -2.096,-3.522 -5.442,-6.507 -9.708,-7.609 z"
       id="path3781"
       inkscape:connector-curvature="0" /><path
       d="m 90.287,59.133 c -2.869,-4.535 -7.752,-8.8 -14.008,-10.368 -0.077,-0.02 -0.15,-0.038 -0.229,-0.055 0.075,-0.026 0.148,-0.05 0.222,-0.077 6.07,-2.176 10.51,-6.906 12.917,-11.701 1.146,-2.316 1.874,-4.521 2.3,-6.575 l -4.368,2.069 c -0.594,1.763 -1.451,3.582 -2.667,5.408 -2.423,3.634 -6.528,7.153 -11.941,8.249 -3.423,0.701 -7.467,0.224 -10.897,-1.583 l -3.659,1.731 c 2.043,1.477 4.388,2.482 6.832,3.035 -2.376,0.792 -4.61,2.023 -6.497,3.694 0.397,2.491 1.347,4.859 2.683,6.977 -2.239,-1.121 -4.692,-1.831 -7.208,-1.981 -1.478,2.042 -2.481,4.387 -3.034,6.833 -0.792,-2.379 -2.023,-4.615 -3.696,-6.5 -2.49,0.399 -4.859,1.348 -6.978,2.684 1.122,-2.241 1.833,-4.692 1.984,-7.208 -2.043,-1.479 -4.388,-2.481 -6.832,-3.034 2.377,-0.792 4.613,-2.023 6.499,-3.697 -0.398,-2.488 -1.348,-4.856 -2.686,-6.977 2.242,1.122 4.692,1.832 7.209,1.983 1.477,-2.042 2.482,-4.387 3.036,-6.831 0.791,2.377 2.02,4.613 3.695,6.499 2.489,-0.399 4.856,-1.348 6.977,-2.685 -1.121,2.24 -1.833,4.691 -1.983,7.208 l 3.659,-1.734 c 0.776,-3.795 2.97,-7.23 5.682,-9.429 4.278,-3.493 9.6,-4.437 13.949,-4.008 2.182,0.216 4.133,0.707 5.874,1.366 l 4.368,-2.069 c -1.859,-0.972 -4.023,-1.808 -6.545,-2.386 -5.233,-1.179 -11.705,-0.744 -17.238,2.575 -0.065,0.039 -0.131,0.081 -0.197,0.121 0.033,-0.069 0.067,-0.138 0.1,-0.209 2.754,-5.834 2.549,-12.313 0.86,-17.408 -0.828,-2.449 -1.87,-4.523 -3.023,-6.276 -2.001,0.627 -4.123,1.568 -6.314,2.94 -4.536,2.87 -8.803,7.751 -10.369,14.009 -0.018,0.075 -0.038,0.149 -0.055,0.225 C 48.685,23.875 48.658,23.801 48.633,23.73 46.456,17.658 41.728,13.219 36.931,10.814 34.616,9.665 32.411,8.938 30.358,8.513 c -0.973,1.858 -1.808,4.024 -2.387,6.542 -1.178,5.238 -0.741,11.705 2.575,17.239 0.04,0.065 0.08,0.132 0.121,0.199 -0.07,-0.034 -0.138,-0.069 -0.21,-0.1 -5.832,-2.756 -12.313,-2.549 -17.407,-0.859 -2.449,0.825 -4.522,1.869 -6.275,3.022 0.627,2 1.567,4.122 2.94,6.313 2.868,4.536 7.751,8.802 14.009,10.369 0.074,0.019 0.15,0.037 0.225,0.055 -0.072,0.025 -0.147,0.05 -0.219,0.076 -6.072,2.177 -10.509,6.904 -12.918,11.7 -1.147,2.318 -1.874,4.521 -2.299,6.574 1.857,0.972 4.024,1.81 6.543,2.389 5.235,1.176 11.705,0.741 17.238,-2.576 0.065,-0.04 0.132,-0.08 0.2,-0.12 -0.036,0.069 -0.069,0.138 -0.102,0.208 -2.754,5.835 -2.549,12.315 -0.86,17.409 0.825,2.448 1.87,4.522 3.022,6.275 2.001,-0.626 4.123,-1.569 6.314,-2.941 4.536,-2.868 8.803,-7.75 10.369,-14.007 0.02,-0.075 0.037,-0.151 0.055,-0.226 0.024,0.073 0.051,0.147 0.076,0.218 2.178,6.073 6.906,10.511 11.701,12.916 2.317,1.149 4.52,1.875 6.576,2.302 0.972,-1.857 1.806,-4.024 2.384,-6.544 1.18,-5.236 0.742,-11.705 -2.573,-17.237 -0.039,-0.068 -0.081,-0.131 -0.121,-0.199 0.069,0.034 0.139,0.068 0.209,0.101 5.833,2.753 12.313,2.549 17.409,0.86 2.448,-0.825 4.523,-1.871 6.274,-3.021 -0.628,-2.004 -1.57,-4.126 -2.94,-6.317 z M 51.674,27.21 c 0.556,-5.494 3.653,-9.925 7.031,-12.699 1.693,-1.387 3.419,-2.42 5.116,-3.184 0.829,1.667 1.509,3.559 1.939,5.708 0.857,4.282 0.444,9.673 -2.61,14.276 -1.924,2.917 -5.124,5.438 -8.823,6.587 C 52.188,34.664 51.313,30.685 51.674,27.21 Z M 31.06,18.753 c 0.217,-2.182 0.706,-4.132 1.367,-5.87 1.765,0.592 3.582,1.45 5.406,2.663 3.635,2.424 7.155,6.528 8.251,11.942 0.702,3.422 0.224,7.468 -1.583,10.896 -3.798,-0.776 -7.23,-2.969 -9.432,-5.683 -3.494,-4.278 -4.437,-9.6 -4.009,-13.948 z M 14.513,41.297 c -1.39,-1.694 -2.423,-3.42 -3.187,-5.118 1.668,-0.827 3.559,-1.507 5.707,-1.94 4.285,-0.855 9.675,-0.442 14.278,2.611 2.917,1.924 5.439,5.123 6.585,8.824 -3.231,2.137 -7.211,3.013 -10.687,2.652 -5.493,-0.553 -9.925,-3.653 -12.696,-7.029 z m 18.188,23.634 c -4.278,3.493 -9.601,4.437 -13.948,4.009 -2.18,-0.216 -4.13,-0.707 -5.87,-1.367 0.591,-1.764 1.449,-3.582 2.663,-5.407 2.424,-3.635 6.529,-7.155 11.941,-8.25 3.424,-0.701 7.469,-0.224 10.897,1.584 -0.777,3.796 -2.971,7.229 -5.683,9.431 z m 15.625,7.86 c -0.555,5.494 -3.652,9.925 -7.029,12.697 -1.696,1.389 -3.422,2.422 -5.117,3.185 -0.828,-1.666 -1.509,-3.558 -1.939,-5.706 -0.856,-4.284 -0.444,-9.675 2.61,-14.277 1.924,-2.92 5.123,-5.439 8.823,-6.587 2.136,3.234 3.014,7.213 2.652,10.688 z m 20.613,8.457 c -0.215,2.18 -0.706,4.131 -1.366,5.871 -1.764,-0.594 -3.582,-1.452 -5.406,-2.664 -3.634,-2.424 -7.155,-6.528 -8.251,-11.943 -0.703,-3.422 -0.223,-7.467 1.584,-10.895 3.797,0.775 7.23,2.967 9.432,5.681 3.492,4.279 4.436,9.604 4.007,13.95 z M 82.966,65.762 c -4.285,0.854 -9.674,0.442 -14.276,-2.611 -2.918,-1.925 -5.44,-5.122 -6.587,-8.824 3.233,-2.138 7.213,-3.014 10.688,-2.653 5.493,0.554 9.927,3.653 12.696,7.03 1.391,1.694 2.422,3.421 3.187,5.118 -1.668,0.826 -3.56,1.508 -5.708,1.94 z"
       id="path3783"
       inkscape:connector-curvature="0" /><path
       d="m 56.91,64.595 c -0.986,2.924 -1.08,6.185 -0.046,9.016 1.518,4.137 4.82,7.17 8.531,8.908 1.008,-3.973 0.754,-8.448 -1.483,-12.244 -1.534,-2.595 -4.116,-4.588 -7.002,-5.68 z"
       id="path3785"
       inkscape:connector-curvature="0" /></g><path
     id="text3789"
     d="m 0,105.26311 c 0.0017,0.0534 0.00391,0.10675 0.00586,0.16016 0.026021,-0.0266 0.059614,-0.0413 0.087891,-0.0645 -0.033152,-0.0318 -0.064131,-0.0636 -0.09375,-0.0957 z m 36.103515,0.99609 c 0.0074,0.009 0.01645,0.0141 0.02344,0.0234 0.0184,-0.007 0.02309,-0.0124 0.04102,-0.0195 -0.01362,4.8e-4 -0.05479,-0.006 -0.06445,-0.004 z m -19.185547,0.28321 c -0.02271,0.003 -0.04568,0.004 -0.06836,0.008 0.01042,0.0215 0.01668,0.0326 0.02734,0.0547 0.02108,-0.006 0.04148,-0.0149 0.0625,-0.0215 -0.0058,-0.0127 -0.01535,-0.0279 -0.02148,-0.041 z m 12.283203,0.34961 c -0.02344,0.003 -0.03355,0.003 -0.05469,0.006 -0.0063,0.005 -0.01535,0.008 -0.02148,0.0137 0.02408,-0.005 0.05287,-0.0145 0.07617,-0.0195 z m 41.457032,0.0703 c 0.01877,0.0145 0.07438,0.0671 0.06836,0.0566 v -0.002 c -0.01549,-0.0191 -0.03456,-0.0326 -0.05664,-0.0547 z m -22.201172,0.6875 c 0.02373,-0.0972 -0.06535,0.12815 -0.126953,0.27344 0.0019,0.0121 0.005,0.0232 0.0078,0.0352 0.04571,-0.10077 0.09304,-0.20162 0.119141,-0.30859 z m 18.666016,0.55273 v 0.0234 h 0.0625 c -0.02835,-0.0111 -0.03237,-0.0117 -0.0625,-0.0234 z"
     inkscape:connector-curvature="0" /><path
     id="text3791"
     d="m 30.800781,111.81584 c 0.011,0.005 0.0204,0.007 0.03125,0.0117 v -0.0117 z m 1.044922,0 v 0.004 c 0.03905,-0.001 0.07813,-0.004 0.117187,-0.004 -0.03906,0 -0.07812,1e-5 -0.117187,0 z m 3.611328,0 c 0,0 -0.002,0.002 -0.002,0.002 0.45051,4.4e-4 0.901041,1.4e-4 1.351562,0 0.0018,-8.5e-4 0.004,-9.6e-4 0.0059,-0.002 z"
     inkscape:connector-curvature="0" /></svg>